<svg preserveAspectRatio="none" overflow="visible" style="display: block;" width="10.6667" height="10.6667" viewBox="0 0 10.6667 10.6667" fill="none" xmlns="http://www.w3.org/2000/svg">
<g id="Container">
<path id="Icon" d="M5.33333 10.6667C3.84444 10.6667 2.58333 10.15 1.55 9.11667C0.516667 8.08333 0 6.82222 0 5.33333C0 3.84444 0.516667 2.58333 1.55 1.55C2.58333 0.516667 3.84444 0 5.33333 0C6.1 0 6.83333 0.158333 7.53333 0.475C8.23333 0.791667 8.83333 1.24444 9.33333 1.83333V0H10.6667V4.66667H6V3.33333H8.8C8.44444 2.71111 7.95833 2.22222 7.34167 1.86667C6.725 1.51111 6.05556 1.33333 5.33333 1.33333C4.22222 1.33333 3.27778 1.72222 2.5 2.5C1.72222 3.27778 1.33333 4.22222 1.33333 5.33333C1.33333 6.44444 1.72222 7.38889 2.5 8.16667C3.27778 8.94444 4.22222 9.33333 5.33333 9.33333C6.18889 9.33333 6.96111 9.08889 7.65 8.6C8.33889 8.11111 8.82222 7.46667 9.1 6.66667H10.5C10.1889 7.84444 9.55556 8.80556 8.6 9.55C7.64444 10.2944 6.55556 10.6667 5.33333 10.6667V10.6667" fill="#45464D"/>
</g>
</svg>
